# xmcd
#
# Track frame offsets: 
#        150
#        9951
#        34346
#        68425
#        111182
#        140312
#        161857
#        185236
#        217735
#        258716
#
# Disc length: 3864 seconds
#
# Revision: 0
# Processed by: cddbd v1.5.2PL0 Copyright (c) Steve Scherf et al.
# Submitted via: ExactAudioCopyFreeDBPlugin 1.0
#
DISCID=8a0f160a
DTITLE=The Grateful Dead - Live At The Centrum 2
DYEAR=1988
DGENRE=
TTITLE0=Introduction
TTITLE1=Playin' In The Band
TTITLE2=Crazy Fingers
TTITLE3=Uncle John's Band
TTITLE4=Drums
TTITLE5=Space
TTITLE6=The Other One
TTITLE7=Black Peter
TTITLE8=Turn On Your Lovelight
TTITLE9=Black Muddy River
EXTD=
EXTT0=
EXTT1=
EXTT2=
EXTT3=
EXTT4=
EXTT5=
EXTT6=
EXTT7=
EXTT8=
EXTT9=
PLAYORDER=
